<svg width="68" height="54" fill="none" xmlns="http://www.w3.org/2000/svg"><path d="M29.297 14.062c10.141-6.081 21.079 4.457 21.079 4.457l7.7-6.076-3.209-2.95-2.976 2.198s-2.006-1.744-3.095-2.516c-1.089-.773-4.183-2.5-4.183-2.5l-.173-2.947L34.804.696l.112 3.257s-3.73-.063-4.735-.023c-1.005.04-4.308.738-4.308.738L21.268 0l-9.374 3.395 5.433 5.222a26.53 26.53 0 00-3.037 2.88 15.522 15.522 0 00-2.239 3.335l-9.514-1.366L0 24.143l9.7 1.405s.36 3.978 1.334 6.266c1.099 2.58 3.188 5.557 3.188 5.557l-8.626 5.743 5.995 5.608 18.094-14.134s-11.137-14.077-.387-20.526zM55.403 40.05s8.289-7.617-1.05-19.21l-1.241.977s6.467 7.659 2.416 14.638a9.185 9.185 0 01-4.288 3.804c-3.255 1.424-9.855 2.75-18.197-2.617l-1.88 1.489s13.846 10.356 24.24.92z" fill="#fff"/><path d="M32.605 23.475c-1.818 1.82-1.313 4.9.906 7.12 2.22 2.22 5.743 2.418 7.564.6 1.82-1.819 1.22-4.897-.998-7.117-2.22-2.22-5.66-2.422-7.472-.603zm12.897-1.949c-1-.868-2.345-.82-3.093-.074-.749.746-.473 2.19.527 3.051 1 .862 2.356.81 3.093.074.763-.768.469-2.188-.527-3.051zm4.921 10.834c.943-1.406.305-3.486-1.424-4.647-1.73-1.161-3.896-.963-4.839.443-.942 1.405-.305 3.486 1.424 4.647 1.73 1.16 3.896.963 4.839-.443z" fill="#fff"/><path d="M67.74 15.82l-3.233-3.4-8.893 7.057c10.37 12.975 1.085 21.485 1.085 21.485-11.307 10.28-26.193-.244-27.14-.93l-6.754 5.361S38.979 60.31 56.15 50.87a18.373 18.373 0 009.235-12.192c.944-4.432.545-10.2-4.104-16.435l6.458-6.422z" fill="#fff"/></svg>