<svg width="177" height="140" fill="none" xmlns="http://www.w3.org/2000/svg"><path d="M76.26 36.458c26.396-15.767 54.865 11.553 54.865 11.553l20.044-15.75-8.352-7.648-7.748 5.698s-5.221-4.523-8.055-6.525c-2.835-2.002-10.89-6.48-10.89-6.48l-.449-7.642-25.082-7.86.292 8.445s-9.708-.163-12.325-.06c-2.616.103-11.215 1.915-11.215 1.915L55.36 0l-24.4 8.802 14.141 13.54a68.925 68.925 0 00-7.904 7.465 40.248 40.248 0 00-5.829 8.647L6.605 34.912 0 62.592l25.248 3.642s.936 10.316 3.474 16.246c2.859 6.69 8.296 14.407 8.296 14.407l-22.453 14.89 15.607 14.54 47.096-36.645s-28.99-36.496-1.008-53.214zm67.953 67.378s21.575-19.75-2.734-49.805l-3.23 2.532s16.833 19.855 6.29 37.95a23.871 23.871 0 01-11.163 9.862c-8.471 3.692-25.651 7.129-47.365-6.785l-4.896 3.86s36.044 26.849 63.098 2.386z" fill="#1179E6"/><path d="M84.868 60.86c-4.732 4.722-3.416 12.705 2.36 18.461 5.777 5.756 14.95 6.267 19.687 1.553 4.738-4.714 3.179-12.694-2.597-18.449-5.776-5.755-14.732-6.28-19.45-1.564zm33.571-5.053c-2.604-2.25-6.104-2.127-8.052-.191-1.948 1.935-1.231 5.677 1.372 7.91 2.604 2.234 6.133 2.099 8.052.192 1.985-1.992 1.219-5.672-1.372-7.91z" fill="#E6DB02"/><path d="M131.245 83.895c2.454-3.644.795-9.038-3.706-12.048-4.502-3.01-10.141-2.496-12.595 1.148-2.454 3.645-.795 9.039 3.706 12.049 4.502 3.01 10.141 2.496 12.595-1.149z" fill="#1179E6"/><path d="M176.321 41.016l-8.413-8.817-23.148 18.297c26.992 33.64 2.823 55.701 2.823 55.701-29.431 26.652-68.178-.63-70.64-2.408l-17.584 13.898s42.102 38.67 86.796 14.195a47.783 47.783 0 0015.478-13.193 47.583 47.583 0 008.562-18.416c2.456-11.489 1.417-26.443-10.683-42.608l16.809-16.65z" fill="#E6DB02"/></svg>