<svg width="52" height="52" fill="none" xmlns="http://www.w3.org/2000/svg"><g clip-path="url(#clip0_160_3746)"><path d="M51.962 48.75a3.125 3.125 0 01-.965 2.29 3.12 3.12 0 01-2.283.965H32.476a3.117 3.117 0 01-2.284-.966 3.122 3.122 0 01-.964-2.285V32.5a3.126 3.126 0 01.964-2.285 3.12 3.12 0 012.283-.965h16.24a3.12 3.12 0 012.282.965 3.124 3.124 0 01.965 2.285v16.25zM12.991 26a12.87 12.87 0 016.546 1.726 12.642 12.642 0 014.72 4.723A12.893 12.893 0 0125.98 39c.02 2.298-.576 4.56-1.725 6.55a12.642 12.642 0 01-4.72 4.724A12.87 12.87 0 0112.992 52a12.87 12.87 0 01-6.546-1.726 12.642 12.642 0 01-4.72-4.723A12.894 12.894 0 010 39a12.897 12.897 0 011.725-6.55 12.642 12.642 0 014.72-4.724A12.87 12.87 0 0112.99 26zm35.622-3.25H29.33a3.148 3.148 0 01-2.898-1.625 3.053 3.053 0 01-.05-3.25l9.645-16.25A3.267 3.267 0 0138.972 0a3.264 3.264 0 012.942 1.624l9.641 16.25a3.054 3.054 0 01-.05 3.25 3.149 3.149 0 01-2.892 1.626z" fill="#fff"/></g><defs><clipPath id="clip0_160_3746"><path fill="#fff" d="M0 0h52v52H0z"/></clipPath></defs></svg>