<svg width="39" height="45" fill="none" xmlns="http://www.w3.org/2000/svg"><g clip-path="url(#clip0_160_3758)"><path d="M34.821 0a3.972 3.972 0 012.916 1.272 4.048 4.048 0 011.26 2.944v36.565a4.076 4.076 0 01-1.26 2.944 3.972 3.972 0 01-2.916 1.272H4.178a3.972 3.972 0 01-2.916-1.272 4.076 4.076 0 01-1.26-2.944V4.219a4.077 4.077 0 011.26-2.944A3.972 3.972 0 014.179.003L34.82 0zM11.143 38.232v-3.34a1.102 1.102 0 00-.348-.79 1.081 1.081 0 00-.784-.352H6.703a1.073 1.073 0 00-.784.351 1.092 1.092 0 00-.348.792v3.34a1.102 1.102 0 00.348.79 1.082 1.082 0 00.784.352h3.308a1.073 1.073 0 00.784-.351 1.092 1.092 0 00.348-.792zm0-11.25v-3.34a1.102 1.102 0 00-.348-.79 1.081 1.081 0 00-.784-.352H6.703a1.073 1.073 0 00-.784.351 1.092 1.092 0 00-.348.792v3.34a1.102 1.102 0 00.348.79 1.082 1.082 0 00.784.352h3.308a1.073 1.073 0 00.784-.351 1.092 1.092 0 00.348-.792zm11.143 11.25v-3.34a1.102 1.102 0 00-.348-.79 1.082 1.082 0 00-.784-.352h-3.308a1.073 1.073 0 00-.784.351 1.09 1.09 0 00-.348.792v3.34a1.102 1.102 0 00.348.79 1.081 1.081 0 00.784.352h3.308a1.073 1.073 0 00.784-.351 1.094 1.094 0 00.348-.792zm0-11.25v-3.34a1.102 1.102 0 00-.348-.79 1.082 1.082 0 00-.784-.352h-3.308a1.073 1.073 0 00-.784.351 1.09 1.09 0 00-.348.792v3.34a1.102 1.102 0 00.348.79 1.081 1.081 0 00.784.352h3.308a1.073 1.073 0 00.784-.351 1.094 1.094 0 00.348-.792zm11.143 11.25v-14.59a1.102 1.102 0 00-.348-.79 1.081 1.081 0 00-.784-.352h-3.308a1.073 1.073 0 00-.784.351 1.092 1.092 0 00-.348.792v14.59a1.102 1.102 0 00.348.79 1.082 1.082 0 00.784.352h3.308a1.073 1.073 0 00.784-.351 1.09 1.09 0 00.348-.792zm0-22.5V6.768a1.102 1.102 0 00-.348-.792 1.082 1.082 0 00-.784-.351H6.703a1.074 1.074 0 00-.784.351 1.093 1.093 0 00-.348.792v8.964a1.102 1.102 0 00.348.792 1.082 1.082 0 00.784.351h25.594a1.073 1.073 0 00.784-.351 1.09 1.09 0 00.348-.792z" fill="#fff"/></g><defs><clipPath id="clip0_160_3758"><path fill="#fff" d="M0 0h39v45H0z"/></clipPath></defs></svg>