<svg width="46" height="52" fill="none" xmlns="http://www.w3.org/2000/svg"><g clip-path="url(#clip0_160_3768)"><path d="M41.977 26a18.503 18.503 0 013.453 7.517 7.96 7.96 0 01-.914 5.485 8.467 8.467 0 01-6.398 4.165 20.164 20.164 0 01-5.384.102 17.894 17.894 0 01-4.164 6.296A8.365 8.365 0 0122.782 52a8.365 8.365 0 01-5.789-2.437 17.895 17.895 0 01-4.159-6.298c-1.79.207-3.601.173-5.383-.102A8.47 8.47 0 011.053 39a8.79 8.79 0 01-.915-5.485A18.504 18.504 0 013.588 26a18.504 18.504 0 01-3.454-7.517 7.96 7.96 0 01.914-5.485 8.05 8.05 0 013.454-3.25A14.616 14.616 0 0112.83 8.73a17.897 17.897 0 014.164-6.296A8.365 8.365 0 0122.782 0c2.173.03 4.25.904 5.79 2.437a17.896 17.896 0 014.158 6.298 14.616 14.616 0 018.328 1.017 8.049 8.049 0 013.453 3.25 8.79 8.79 0 01.915 5.485A18.504 18.504 0 0141.977 26zM6.43 35.75a2.55 2.55 0 001.47.864 8.82 8.82 0 002.996.254 86.826 86.826 0 01-.711-4.063 57.88 57.88 0 01-2.235-1.93 15.394 15.394 0 00-1.422 2.996 2.625 2.625 0 00-.098 1.879zm3.758-16.554c.204-1.357.44-2.71.711-4.063h-.61a8.981 8.981 0 00-2.538.305 2.104 2.104 0 00-1.32.864c-.2.6-.164 1.254.101 1.828a15.395 15.395 0 001.422 2.996 55.96 55.96 0 012.234-1.93zM22.782 6.5a2.453 2.453 0 00-1.624 1.017 13.713 13.713 0 00-1.828 2.743c1.084.406 2.235.846 3.453 1.32 1.219-.474 2.37-.914 3.454-1.32a13.708 13.708 0 00-1.83-2.743A2.453 2.453 0 0022.782 6.5zm0 39a2.454 2.454 0 001.625-1.017 13.712 13.712 0 001.829-2.74 299.65 299.65 0 01-3.454-1.32c-1.218.473-2.37.913-3.453 1.32a13.71 13.71 0 001.828 2.74 2.453 2.453 0 001.625 1.017zm6.398-15.945a49.84 49.84 0 00-.101-7.11 41.81 41.81 0 00-6.297-3.758 41.804 41.804 0 00-6.296 3.758 49.854 49.854 0 00-.102 7.11 46.566 46.566 0 006.398 3.758 46.574 46.574 0 006.398-3.758zm9.948 6.195c.2-.617.163-1.287-.102-1.879a15.39 15.39 0 00-1.422-2.995 54.313 54.313 0 01-2.234 1.93 84.812 84.812 0 01-.712 4.062 8.82 8.82 0 002.996-.254 2.544 2.544 0 001.48-.864h-.006zM37.61 21.126a15.396 15.396 0 001.422-2.996 2.487 2.487 0 00.102-1.828 2.104 2.104 0 00-1.32-.864 8.981 8.981 0 00-2.54-.305h-.609c.27 1.357.508 2.71.711 4.063.745.609 1.49 1.252 2.234 1.93zM22.782 22.75a3.124 3.124 0 012.285.965A3.124 3.124 0 0126.032 26a3.124 3.124 0 01-.965 2.285 3.123 3.123 0 01-2.285.965 3.125 3.125 0 01-2.284-.965A3.122 3.122 0 0119.532 26a3.124 3.124 0 01.966-2.285 3.123 3.123 0 012.284-.965z" fill="#fff"/></g><defs><clipPath id="clip0_160_3768"><path fill="#fff" d="M0 0h45.564v52H0z"/></clipPath></defs></svg>