<svg width="61" height="48" fill="none" xmlns="http://www.w3.org/2000/svg"><g clip-path="url(#clip0_160_3752)"><path d="M9.15 6v33h-6.1V3.75a3.576 3.576 0 01.268-1.448c.188-.46.47-.876.829-1.224.354-.353.777-.63 1.245-.816A3.743 3.743 0 016.864 0h47.274a3.743 3.743 0 011.472.262c.467.186.891.463 1.245.816a3.597 3.597 0 011.096 2.672V39h-6.1V6H9.15zm50.325 36a1.49 1.49 0 011.097.421A1.44 1.44 0 0161 43.5v3a1.424 1.424 0 01-.429 1.08 1.471 1.471 0 01-1.097.42H1.525a1.509 1.509 0 01-1.096-.416 1.459 1.459 0 01-.424-1.078V43.5a1.44 1.44 0 01.424-1.082A1.488 1.488 0 011.525 42h25.926v-6h18.3v6h13.724z" fill="#fff"/></g><defs><clipPath id="clip0_160_3752"><path fill="#fff" d="M0 0h61v48H0z"/></clipPath></defs></svg>