<svg width="52" height="46" fill="none" xmlns="http://www.w3.org/2000/svg"><g clip-path="url(#clip0_160_3754)"><path d="M47.437 0a4.16 4.16 0 013.055 1.258 4.16 4.16 0 011.258 3.055v28.75a4.16 4.16 0 01-1.258 3.055 4.16 4.16 0 01-3.055 1.258h-17.25l1.438 4.311h6.469a2.077 2.077 0 011.527.629 2.077 2.077 0 01.629 1.527 2.08 2.08 0 01-.63 1.527 2.08 2.08 0 01-1.526.629H13.656a2.079 2.079 0 01-1.527-.629 2.08 2.08 0 01-.63-1.527 2.08 2.08 0 01.63-1.527 2.08 2.08 0 011.527-.629h6.469l1.437-4.312H4.312a4.159 4.159 0 01-3.055-1.258 4.159 4.159 0 01-1.258-3.055V4.312a4.159 4.159 0 011.258-3.055A4.16 4.16 0 014.312-.001L47.437 0zM46 31.625V5.75H5.75v25.875H46z" fill="#fff"/></g><defs><clipPath id="clip0_160_3754"><path fill="#fff" d="M0 0h51.75v46H0z"/></clipPath></defs></svg>