<svg width="45" height="52" fill="none" xmlns="http://www.w3.org/2000/svg"><g clip-path="url(#clip0_160_3750)"><path d="M35.24 13.102a16.584 16.584 0 00-6.622.71A27.592 27.592 0 0022.5 16.25a27.592 27.592 0 00-6.12-2.437 16.584 16.584 0 00-6.621-.711 9.77 9.77 0 00-3.639 1.472 9.9 9.9 0 00-2.782 2.793 19.168 19.168 0 00-3.015 7.922 25.54 25.54 0 00.1 8.735 27.612 27.612 0 004.821 12.085C8.119 50.036 11.731 52 16.078 52a7.557 7.557 0 003.512-1.017 5.391 5.391 0 012.91-.81 5.39 5.39 0 012.908.812 7.559 7.559 0 003.512 1.017c4.348 0 7.958-1.963 10.832-5.89a27.612 27.612 0 004.815-12.086c.535-2.884.569-5.84.1-8.735a19.168 19.168 0 00-3.015-7.922 9.898 9.898 0 00-2.778-2.792 9.77 9.77 0 00-3.634-1.475zm-5.517-4.165a8.64 8.64 0 001.906-3.757 12.02 12.02 0 00.501-3.556l-.1-1.523-1.505-.102a11.593 11.593 0 00-3.512.507 8.46 8.46 0 00-3.711 1.931 9.107 9.107 0 00-2.307 5.586 13.158 13.158 0 000 3.25l1.504.103c1.19.012 2.374-.16 3.512-.508a8.46 8.46 0 003.712-1.93z" fill="#fff"/></g><defs><clipPath id="clip0_160_3750"><path fill="#fff" d="M0 0h45v52H0z"/></clipPath></defs></svg>