<svg width="46" height="52" fill="none" xmlns="http://www.w3.org/2000/svg"><g clip-path="url(#clip0_160_3760)"><path d="M44.372 40.93a7.097 7.097 0 011.017 4.925 7.214 7.214 0 01-2.386 4.367A6.831 6.831 0 0138.278 52H7.2a6.948 6.948 0 01-4.723-1.726A7.033 7.033 0 01.09 45.906a7.195 7.195 0 011.017-4.974l11.88-19.097V6.5h-.812a2.35 2.35 0 01-1.726-.711 2.351 2.351 0 01-.711-1.726V2.438a2.35 2.35 0 01.71-1.726 2.35 2.35 0 011.727-.71h21.126a2.35 2.35 0 011.726.71 2.35 2.35 0 01.71 1.726v1.625a2.35 2.35 0 01-.71 1.726 2.35 2.35 0 01-1.726.711h-.813v15.335L44.372 40.93zM14.004 32.5h17.468l-4.874-7.922a2.971 2.971 0 01-.61-1.828V6.5h-6.5v16.25a2.971 2.971 0 01-.608 1.828L14.003 32.5z" fill="#fff"/></g><defs><clipPath id="clip0_160_3760"><path fill="#fff" d="M0 0h45.477v52H0z"/></clipPath></defs></svg>