<svg width="59" height="52" fill="none" xmlns="http://www.w3.org/2000/svg"><g clip-path="url(#clip0_160_3764)"><path d="M58.02 19.687a1.608 1.608 0 01.508 1.169 1.607 1.607 0 01-.508 1.168l-9.145 9.145a1.605 1.605 0 01-1.805.375 1.605 1.605 0 01-.531-.375l-2.233-2.336a1.358 1.358 0 01-.508-1.118 1.359 1.359 0 01.508-1.117l1.117-1.22-2.95-2.84a6.81 6.81 0 01-3.302 0 6.288 6.288 0 01-2.997-1.727l-4.976-4.977a6.25 6.25 0 01-1.934-4.58V9.323L20.118 4.75A15.709 15.709 0 0127.435.533a16.739 16.739 0 018.383 0 15.073 15.073 0 017.265 4.217l4.573 4.573a5.703 5.703 0 011.727 2.896 7.226 7.226 0 010 3.405l2.946 2.946 1.118-1.22c.33-.267.743-.41 1.168-.405.425-.006.838.138 1.168.406l2.237 2.336zm-29.062-1.524l4.977 4.976c.347.335.72.64 1.117.915l-24.18 25.914A5.788 5.788 0 016.4 52.003a6.166 6.166 0 01-4.524-1.88A6.165 6.165 0 01-.004 45.6a5.788 5.788 0 012.037-4.471l25.91-24.184c.305.433.644.84 1.015 1.218z" fill="#fff"/></g><defs><clipPath id="clip0_160_3764"><path fill="#fff" d="M0 0h58.529v52H0z"/></clipPath></defs></svg>