<svg width="49" height="52" fill="none" xmlns="http://www.w3.org/2000/svg"><g clip-path="url(#clip0_160_3766)"><path d="M48.75 13a4.832 4.832 0 00-.812-2.742 4.38 4.38 0 00-2.234-1.723L26.204.406a4.316 4.316 0 00-3.655 0l-19.5 8.129A4.38 4.38 0 00.814 10.26 4.833 4.833 0 000 13.004a46.958 46.958 0 003.453 17.973 40.706 40.706 0 008.43 13.102 30.172 30.172 0 0010.665 7.515 4.316 4.316 0 003.655 0 29.979 29.979 0 009.75-6.601 42.676 42.676 0 008.938-12.797A46.968 46.968 0 0048.75 13zM24.378 45.297V6.602l17.874 7.515a38.202 38.202 0 01-5.485 19.602 29.888 29.888 0 01-12.39 11.578z" fill="#fff"/></g><defs><clipPath id="clip0_160_3766"><path fill="#fff" d="M0 0h48.75v52H0z"/></clipPath></defs></svg>