<svg width="52" height="46" fill="none" xmlns="http://www.w3.org/2000/svg"><g clip-path="url(#clip0_160_3756)"><path d="M49.294.898a32.274 32.274 0 011.985 6.24c.476 2.198.718 4.44.722 6.688a32.663 32.663 0 01-3.068 14.19 26.896 26.896 0 01-8.48 10.406 24.324 24.324 0 01-12.628 4.581 16.604 16.604 0 01-9.477-1.706 16.962 16.962 0 01-6.225-5.207 24.627 24.627 0 00-4.962 5.387 13.497 13.497 0 00-1.528 2.648 2.87 2.87 0 01-1.58 1.616 2.71 2.71 0 01-2.208.045A2.903 2.903 0 01.26 44.217a2.676 2.676 0 01-.05-2.198 26.52 26.52 0 014.876-7.275 33.935 33.935 0 0111.097-7.994 43.43 43.43 0 0118.495-3.767 1.412 1.412 0 001.038-.4 1.398 1.398 0 00.401-1.032 1.393 1.393 0 00-.401-1.032 1.408 1.408 0 00-1.038-.4c-10.165 0-18.767 2.514-25.807 7.541l-.09-.18c-.06-.718-.09-1.256-.09-1.615a16.575 16.575 0 012.35-8.628 17.609 17.609 0 016.315-6.284 16.782 16.782 0 018.661-2.334h7.217a15.04 15.04 0 007.804-2.11A16.067 16.067 0 0046.766.72 1.447 1.447 0 0148.072 0a1.255 1.255 0 011.222.9z" fill="#fff"/></g><defs><clipPath id="clip0_160_3756"><path fill="#fff" d="M0 0h52v46H0z"/></clipPath></defs></svg>