<svg width="53" height="53" viewBox="0 0 53 53" fill="none" xmlns="http://www.w3.org/2000/svg">
<path d="M53 35.3333V48.5833C53.0003 49.0204 52.871 49.4476 52.6284 49.8111C52.3857 50.1746 52.0407 50.4579 51.637 50.6252C51.2333 50.7925 50.789 50.8362 50.3604 50.7509C49.9318 50.6655 49.5381 50.4549 49.2293 50.1457L44.796 45.7097C39.2338 50.488 32.9483 53 26.5 53C14.6799 53 7.56906 46.0244 7.27094 45.7291C6.8562 45.3154 6.62276 44.754 6.62199 44.1682C6.62121 43.5825 6.85316 43.0204 7.2668 42.6056C7.68044 42.1909 8.24189 41.9575 8.82765 41.9567C9.4134 41.9559 9.97547 42.1879 10.3902 42.6015C10.4896 42.6981 16.6067 48.5833 26.5 48.5833C32.8959 48.5833 38.0717 45.5883 41.6602 42.5767L35.9793 36.8957C35.6701 36.5869 35.4595 36.1932 35.3741 35.7646C35.2888 35.336 35.3325 34.8917 35.4998 34.488C35.6671 34.0843 35.9504 33.7392 36.3139 33.4966C36.6773 33.254 37.1046 33.1247 37.5417 33.125L50.7917 33.125C51.3773 33.125 51.9391 33.3577 52.3532 33.7718C52.7673 34.1859 53 34.7476 53 35.3333ZM17.4983 18.5114C17.6657 18.1079 17.7096 17.6638 17.6246 17.2354C17.5396 16.8069 17.3295 16.4133 17.0207 16.1043L11.3398 10.4233C14.9283 7.41172 20.1041 4.41667 26.5 4.41667C36.4237 4.41667 42.5463 10.335 42.6098 10.4012C43.0249 10.8149 43.5873 11.0467 44.1733 11.0457C44.7593 11.0446 45.3209 10.8108 45.7346 10.3957C46.1482 9.98062 46.38 9.4182 46.379 8.83219C46.378 8.24618 46.1442 7.68458 45.7291 7.27094C45.4309 6.97557 38.3201 0 26.5 0C20.0517 0 13.7662 2.51198 8.20396 7.29026L3.77073 2.85427C3.46188 2.54508 3.06824 2.33448 2.63964 2.24912C2.21103 2.16377 1.76674 2.2075 1.36301 2.37479C0.959271 2.54208 0.614249 2.82539 0.371618 3.18887C0.128987 3.55235 -0.000343236 3.97965 6.84143e-07 4.41667L6.84143e-07 17.6667C6.84143e-07 18.2524 0.232664 18.8141 0.646807 19.2282C1.06095 19.6423 1.62265 19.875 2.20833 19.875L15.4583 19.875C15.8951 19.8749 16.322 19.7453 16.6851 19.5026C17.0482 19.2599 17.3312 18.9149 17.4983 18.5114Z" fill="url(#paint0_linear_2621_11341)"/>
<defs>
<linearGradient id="paint0_linear_2621_11341" x1="26.5" y1="0" x2="26.5" y2="53" gradientUnits="userSpaceOnUse">
<stop stop-color="#9C50B8"/>
<stop offset="1" stop-color="#462452"/>
</linearGradient>
</defs>
</svg>
