<svg width="68" height="54" viewBox="0 0 68 54" fill="none" xmlns="http://www.w3.org/2000/svg">
<path d="M29.2975 14.0623C39.4384 7.98068 50.3758 18.5185 50.3758 18.5185L58.0763 12.4432L54.8674 9.49362L51.891 11.6913C51.891 11.6913 49.8853 9.94696 48.7963 9.17464C47.7073 8.40232 44.6126 6.67495 44.6126 6.67495L44.4403 3.72756L34.8041 0.696033L34.9161 3.95329C34.9161 3.95329 31.1865 3.8905 30.1813 3.93006C29.1761 3.96962 25.8727 4.66848 25.8727 4.66848L21.2678 0L11.8943 3.39508L17.327 8.61737C16.2406 9.49572 15.2252 10.4586 14.2904 11.4969C13.4027 12.507 12.65 13.6282 12.0512 14.8324L2.53734 13.4661L0 24.143L9.69995 25.5476C9.69995 25.5476 10.0593 29.5263 11.0344 31.8138C12.1328 34.3941 14.2216 37.3707 14.2216 37.3707L5.59564 43.1142L11.5914 48.7223L29.6848 34.5879C29.6848 34.5879 18.5475 20.5108 29.2975 14.0623Z" fill="white"/>
<path d="M55.4029 40.0508C55.4029 40.0508 63.6918 32.4333 54.3528 20.8403L53.1119 21.817C53.1119 21.817 59.5787 29.4756 55.5284 36.4548C54.5411 38.1481 53.0383 39.4811 51.2396 40.2589C47.9854 41.6827 41.3852 43.0085 33.0429 37.6418L31.1621 39.1306C31.1621 39.1306 45.0094 49.4866 55.4029 40.0508Z" fill="white"/>
<path d="M32.6046 23.4749C30.7865 25.2959 31.2921 28.3751 33.5112 30.5954C35.7303 32.8157 39.2544 33.0128 41.0746 31.1944C42.8948 29.376 42.2957 26.2983 40.0766 24.0784C37.8575 21.8584 34.4169 21.6562 32.6046 23.4749Z" fill="white"/>
<path d="M45.5021 21.5257C44.5019 20.6576 43.1572 20.7054 42.4087 21.4519C41.6602 22.1985 41.9357 23.6418 42.9359 24.5033C43.9361 25.3647 45.2919 25.3126 46.0294 24.577C46.7917 23.8088 46.4976 22.3894 45.5021 21.5257Z" fill="white"/>
<path d="M50.4229 32.3599C51.3659 30.9542 50.7283 28.8736 48.999 27.7126C47.2697 26.5517 45.1034 26.75 44.1604 28.1556C43.2175 29.5612 43.855 31.6418 45.5844 32.8028C47.3137 33.9638 49.48 33.7655 50.4229 32.3599Z" fill="white"/>
<path d="M67.7393 15.8202L64.5068 12.4194L55.614 19.4768C65.9837 32.4524 56.6986 40.9615 56.6986 40.9615C45.3919 51.2416 30.5058 40.7185 29.5599 40.0325L22.8047 45.3933C22.8047 45.3933 38.9793 60.3088 56.1497 50.8686C58.4742 49.6192 60.5023 47.8835 62.0961 45.7797C63.6898 43.6758 64.8118 41.2531 65.3855 38.6766C66.3292 34.2451 65.93 28.4769 61.2812 22.2418L67.7393 15.8202Z" fill="white"/>
</svg>
