<svg width="177" height="140" viewBox="0 0 177 140" fill="none" xmlns="http://www.w3.org/2000/svg">
<path d="M76.2598 36.4577C102.656 20.6906 131.125 48.0109 131.125 48.0109L151.169 32.2601L142.817 24.6131L135.069 30.3107C135.069 30.3107 129.848 25.7884 127.014 23.7861C124.179 21.7838 116.124 17.3054 116.124 17.3054L115.675 9.66404L90.5929 1.80453L90.8846 10.2493C90.8846 10.2493 81.1766 10.0865 78.5602 10.189C75.9437 10.2916 67.3451 12.1035 67.3451 12.1035L55.3589 0L30.9601 8.80207L45.1012 22.3413C42.2733 24.6185 39.6303 27.1148 37.197 29.8069C34.8865 32.4257 32.9273 35.3325 31.3685 38.4543L6.60454 34.912L0 62.5929L25.2484 66.2345C25.2484 66.2345 26.1837 76.5497 28.7218 82.4801C31.5809 89.17 37.0181 96.8871 37.0181 96.8871L14.5651 111.777L30.1718 126.317L77.2678 89.6722C77.2678 89.6722 48.2781 53.1763 76.2598 36.4577Z" fill="#1179E6"/>
<path d="M144.213 103.836C144.213 103.836 165.788 84.0867 141.479 54.0308L138.249 56.563C138.249 56.563 155.082 76.4185 144.539 94.5126C141.969 98.9028 138.058 102.359 133.376 104.375C124.905 108.067 107.725 111.504 86.0109 97.5902L81.1152 101.45C81.1152 101.45 117.159 128.299 144.213 103.836Z" fill="#1179E6"/>
<path d="M84.8685 60.8606C80.1362 65.5815 81.4522 73.5647 87.2285 79.321C93.0047 85.0773 102.178 85.5884 106.915 80.874C111.653 76.1596 110.094 68.1805 104.318 62.425C98.5415 56.6696 89.586 56.1454 84.8685 60.8606Z" fill="#E6DB02"/>
<path d="M118.439 55.8072C115.835 53.5566 112.335 53.6803 110.387 55.6159C108.439 57.5514 109.156 61.2932 111.759 63.5267C114.363 65.7602 117.892 65.625 119.811 63.7179C121.796 61.7262 121.03 58.0463 118.439 55.8072Z" fill="#E6DB02"/>
<path d="M131.245 83.8953C133.699 80.2511 132.04 74.8569 127.539 71.8469C123.037 68.837 117.398 69.3512 114.944 72.9954C112.49 76.6396 114.149 82.0338 118.65 85.0437C123.152 88.0537 128.791 87.5395 131.245 83.8953Z" fill="#1179E6"/>
<path d="M176.321 41.0159L167.908 32.1992L144.76 50.496C171.752 84.1366 147.583 106.197 147.583 106.197C118.152 132.849 79.405 105.567 76.9429 103.789L59.3594 117.687C59.3594 117.687 101.461 156.357 146.155 131.882C152.205 128.643 157.484 124.143 161.633 118.689C165.781 113.234 168.701 106.953 170.195 100.273C172.651 88.7843 171.612 73.8296 159.512 57.6645L176.321 41.0159Z" fill="#E6DB02"/>
</svg>
