<svg width="59" height="52" viewBox="0 0 59 52" fill="none" xmlns="http://www.w3.org/2000/svg">
<g clip-path="url(#clip0_160_3764)">
<path d="M58.0205 19.6874C58.1803 19.8372 58.3078 20.0182 58.3952 20.2191C58.4825 20.42 58.5278 20.6367 58.5283 20.8557C58.5278 21.0748 58.4825 21.2915 58.3952 21.4924C58.3078 21.6933 58.1803 21.8743 58.0205 22.0241L48.8752 31.1693C48.7254 31.3292 48.5445 31.4567 48.3436 31.544C48.1426 31.6314 47.926 31.6767 47.7069 31.6771C47.4878 31.6767 47.2711 31.6314 47.0702 31.544C46.8693 31.4567 46.6884 31.3292 46.5386 31.1693L44.306 28.8327C44.1395 28.6994 44.0068 28.5288 43.9185 28.3347C43.8303 28.1405 43.7891 27.9283 43.7981 27.7153C43.7891 27.5022 43.8303 27.29 43.9185 27.0959C44.0068 26.9017 44.1395 26.7311 44.306 26.5978L45.4234 25.3786L42.4737 22.5375C41.3896 22.8085 40.2554 22.8085 39.1712 22.5375C38.0304 22.2534 36.992 21.655 36.1741 20.8105L31.1977 15.8341C30.5791 15.2435 30.0882 14.5323 29.7556 13.7444C29.4229 12.9565 29.2555 12.1087 29.2637 11.2535V9.32293L20.1184 4.75029C22.1265 2.70296 24.6568 1.24442 27.4348 0.532792C30.1839 -0.178248 33.0687 -0.178248 35.8178 0.532792C38.5904 1.22166 41.1101 2.68431 43.0834 4.75029L47.656 9.32293C48.5105 10.0922 49.1125 11.1019 49.383 12.2194C49.6541 13.338 49.6541 14.5051 49.383 15.6237L52.3293 18.57L53.4467 17.3508C53.7767 17.083 54.1901 16.9393 54.615 16.9447C55.04 16.9393 55.4534 17.083 55.7834 17.3508L58.0205 19.6874ZM28.9583 18.1628L33.9347 23.1392C34.2822 23.4736 34.6558 23.7795 35.0521 24.0542L10.8713 49.9677C10.321 50.6141 9.63522 51.1316 8.86259 51.4834C8.08996 51.8352 7.2494 52.0128 6.40049 52.0035C5.55799 52.0159 4.72187 51.8556 3.94377 51.5323C3.16566 51.209 2.46209 50.7296 1.87649 50.1238C1.27065 49.5382 0.791279 48.8346 0.467977 48.0565C0.144675 47.2784 -0.0156963 46.4423 -0.00323158 45.5998C-0.012516 44.7509 0.165044 43.9103 0.516861 43.1377C0.868679 42.365 1.38614 41.6792 2.03257 41.1289L27.9438 16.9447C28.2481 17.3778 28.5874 17.7852 28.9583 18.1628Z" fill="white"/>
</g>
<defs>
<clipPath id="clip0_160_3764">
<rect width="58.5293" height="52" fill="white"/>
</clipPath>
</defs>
</svg>
