<svg width="49" height="52" viewBox="0 0 49 52" fill="none" xmlns="http://www.w3.org/2000/svg">
<g clip-path="url(#clip0_160_3766)">
<path d="M48.7509 13.0001C48.763 12.0249 48.4796 11.0689 47.9382 10.2577C47.404 9.45277 46.6186 8.84707 45.7044 8.5349L26.2044 0.40595C25.6322 0.138417 25.0082 -0.000244141 24.3765 -0.000244141C23.7448 -0.000244141 23.1208 0.138417 22.5486 0.40595L3.04859 8.5349C2.13346 8.84774 1.34764 9.4547 0.813718 10.2611C0.272266 11.0723 -0.0110756 12.0283 0.000935686 13.0035C-0.0379492 19.1633 1.1355 25.2706 3.45441 30.9774C5.39459 35.8467 8.25688 40.2954 11.8841 44.0792C14.8483 47.332 18.4882 49.897 22.5486 51.5943C23.1208 51.8618 23.7448 52.0005 24.3765 52.0005C25.0082 52.0005 25.6322 51.8618 26.2044 51.5943C29.8589 50.0599 33.1728 47.816 35.9544 44.9926C39.6948 41.3127 42.7246 36.9747 44.8916 32.196C47.5123 26.1396 48.8273 19.5988 48.7509 13.0001ZM24.3765 45.2966V6.60186L42.2509 14.117C42.229 21.0267 40.3334 27.8011 36.7661 33.7187C33.8406 38.6932 29.5375 42.7144 24.3765 45.2966Z" fill="white"/>
</g>
<defs>
<clipPath id="clip0_160_3766">
<rect width="48.75" height="52" fill="white"/>
</clipPath>
</defs>
</svg>
