<svg width="39" height="45" viewBox="0 0 39 45" fill="none" xmlns="http://www.w3.org/2000/svg">
<g clip-path="url(#clip0_160_3758)">
<path d="M34.821 6.03922e-08C35.3673 -9.52741e-05 35.9079 0.112681 36.4095 0.331389C36.911 0.550096 37.363 0.870109 37.7375 1.27174C38.1353 1.64984 38.4523 2.10613 38.6689 2.61252C38.8855 3.11891 38.9972 3.6647 38.9971 4.21631V40.7808C38.9972 41.3324 38.8855 41.8782 38.6689 42.3845C38.4523 42.8909 38.1353 43.3472 37.7375 43.7253C37.363 44.127 36.911 44.447 36.4095 44.6657C35.9079 44.8844 35.3673 44.9972 34.821 44.9971H4.1781C3.63175 44.9972 3.09116 44.8844 2.58959 44.6657C2.08802 44.447 1.63608 44.127 1.26158 43.7253C0.863776 43.3472 0.546809 42.8909 0.330184 42.3845C0.113559 41.8782 0.00185876 41.3324 0.00195318 40.7808V4.21924C0.00185876 3.66763 0.113559 3.12184 0.330184 2.61545C0.546809 2.10906 0.863776 1.65278 1.26158 1.27468C1.63608 0.873046 2.08802 0.55303 2.58959 0.334322C3.09116 0.115614 3.63175 0.0028379 4.1781 0.00293323L34.821 6.03922e-08ZM11.1429 38.2324V34.8926C11.1414 34.7437 11.1097 34.5967 11.0499 34.4606C10.9901 34.3245 10.9033 34.2022 10.795 34.1012C10.695 33.9918 10.5738 33.9043 10.439 33.8439C10.3042 33.7835 10.1586 33.7515 10.0111 33.75H6.70317C6.55571 33.7515 6.41011 33.7835 6.27531 33.8439C6.14051 33.9043 6.01936 33.9918 5.91929 34.1012C5.81097 34.2022 5.72423 34.3245 5.66442 34.4606C5.6046 34.5967 5.57296 34.7437 5.57144 34.8926V38.2324C5.57296 38.3813 5.6046 38.5283 5.66442 38.6644C5.72423 38.8005 5.81097 38.9228 5.91929 39.0238C6.01936 39.1332 6.14051 39.2207 6.27531 39.2811C6.41011 39.3415 6.55571 39.3735 6.70317 39.375H10.0111C10.1586 39.3735 10.3042 39.3415 10.439 39.2811C10.5738 39.2207 10.695 39.1332 10.795 39.0238C10.9033 38.9228 10.9901 38.8005 11.0499 38.6644C11.1097 38.5283 11.1414 38.3813 11.1429 38.2324ZM11.1429 26.9824V23.6426C11.1414 23.4937 11.1097 23.3467 11.0499 23.2106C10.9901 23.0745 10.9033 22.9522 10.795 22.8512C10.695 22.7418 10.5738 22.6543 10.439 22.5939C10.3042 22.5335 10.1586 22.5015 10.0111 22.5H6.70317C6.55571 22.5015 6.41011 22.5335 6.27531 22.5939C6.14051 22.6543 6.01936 22.7418 5.91929 22.8512C5.81097 22.9522 5.72423 23.0745 5.66442 23.2106C5.6046 23.3467 5.57296 23.4937 5.57144 23.6426V26.9824C5.57296 27.1313 5.6046 27.2783 5.66442 27.4144C5.72423 27.5505 5.81097 27.6728 5.91929 27.7738C6.01936 27.8832 6.14051 27.9707 6.27531 28.0311C6.41011 28.0915 6.55571 28.1235 6.70317 28.125H10.0111C10.1586 28.1235 10.3042 28.0915 10.439 28.0311C10.5738 27.9707 10.695 27.8832 10.795 27.7738C10.9033 27.6728 10.9901 27.5505 11.0499 27.4144C11.1097 27.2783 11.1414 27.1313 11.1429 26.9824ZM22.2857 38.2324V34.8926C22.2842 34.7437 22.2526 34.5967 22.1928 34.4606C22.1329 34.3245 22.0462 34.2022 21.9379 34.1012C21.8378 33.9918 21.7167 33.9043 21.5819 33.8439C21.4471 33.7835 21.3015 33.7515 21.154 33.75H17.846C17.6986 33.7515 17.553 33.7835 17.4182 33.8439C17.2834 33.9043 17.1622 33.9918 17.0622 34.1012C16.9538 34.2022 16.8671 34.3245 16.8073 34.4606C16.7475 34.5967 16.7158 34.7437 16.7143 34.8926V38.2324C16.7158 38.3813 16.7475 38.5283 16.8073 38.6644C16.8671 38.8005 16.9538 38.9228 17.0622 39.0238C17.1622 39.1332 17.2834 39.2207 17.4182 39.2811C17.553 39.3415 17.6986 39.3735 17.846 39.375H21.154C21.3015 39.3735 21.4471 39.3415 21.5819 39.2811C21.7167 39.2207 21.8378 39.1332 21.9379 39.0238C22.0462 38.9228 22.1329 38.8005 22.1928 38.6644C22.2526 38.5283 22.2842 38.3813 22.2857 38.2324ZM22.2857 26.9824V23.6426C22.2842 23.4937 22.2526 23.3467 22.1928 23.2106C22.1329 23.0745 22.0462 22.9522 21.9379 22.8512C21.8378 22.7418 21.7167 22.6543 21.5819 22.5939C21.4471 22.5335 21.3015 22.5015 21.154 22.5H17.846C17.6986 22.5015 17.553 22.5335 17.4182 22.5939C17.2834 22.6543 17.1622 22.7418 17.0622 22.8512C16.9538 22.9522 16.8671 23.0745 16.8073 23.2106C16.7475 23.3467 16.7158 23.4937 16.7143 23.6426V26.9824C16.7158 27.1313 16.7475 27.2783 16.8073 27.4144C16.8671 27.5505 16.9538 27.6728 17.0622 27.7738C17.1622 27.8832 17.2834 27.9707 17.4182 28.0311C17.553 28.0915 17.6986 28.1235 17.846 28.125H21.154C21.3015 28.1235 21.4471 28.0915 21.5819 28.0311C21.7167 27.9707 21.8378 27.8832 21.9379 27.7738C22.0462 27.6728 22.1329 27.5505 22.1928 27.4144C22.2526 27.2783 22.2842 27.1313 22.2857 26.9824ZM33.4286 38.2324V23.6426C33.4271 23.4937 33.3954 23.3467 33.3356 23.2106C33.2758 23.0745 33.1891 22.9522 33.0807 22.8512C32.9807 22.7418 32.8595 22.6543 32.7247 22.5939C32.5899 22.5335 32.4443 22.5015 32.2969 22.5H28.9889C28.8414 22.5015 28.6958 22.5335 28.561 22.5939C28.4262 22.6543 28.3051 22.7418 28.205 22.8512C28.0967 22.9522 28.0099 23.0745 27.9501 23.2106C27.8903 23.3467 27.8587 23.4937 27.8572 23.6426V38.2324C27.8587 38.3813 27.8903 38.5283 27.9501 38.6644C28.0099 38.8005 28.0967 38.9228 28.205 39.0238C28.3051 39.1332 28.4262 39.2207 28.561 39.2811C28.6958 39.3415 28.8414 39.3735 28.9889 39.375H32.2969C32.4443 39.3735 32.5899 39.3415 32.7247 39.2811C32.8595 39.2207 32.9807 39.1332 33.0807 39.0238C33.1891 38.9228 33.2758 38.8005 33.3356 38.6644C33.3954 38.5283 33.4271 38.3813 33.4286 38.2324ZM33.4286 15.7324V6.76761C33.4271 6.61872 33.3954 6.47173 33.3356 6.33563C33.2758 6.19954 33.1891 6.07723 33.0807 5.9762C32.9807 5.86683 32.8595 5.77926 32.7247 5.71887C32.5899 5.65848 32.4443 5.62653 32.2969 5.625H6.70317C6.55571 5.62653 6.41011 5.65848 6.27531 5.71887C6.14051 5.77926 6.01936 5.86683 5.91929 5.9762C5.81097 6.07723 5.72423 6.19954 5.66442 6.33563C5.6046 6.47173 5.57296 6.61872 5.57144 6.76761V15.7324C5.57296 15.8813 5.6046 16.0283 5.66442 16.1644C5.72423 16.3005 5.81097 16.4228 5.91929 16.5238C6.01936 16.6332 6.14051 16.7207 6.27531 16.7811C6.41011 16.8415 6.55571 16.8735 6.70317 16.875H32.2969C32.4443 16.8735 32.5899 16.8415 32.7247 16.7811C32.8595 16.7207 32.9807 16.6332 33.0807 16.5238C33.1891 16.4228 33.2758 16.3005 33.3356 16.1644C33.3954 16.0283 33.4271 15.8813 33.4286 15.7324Z" fill="white"/>
</g>
<defs>
<clipPath id="clip0_160_3758">
<rect width="39" height="45" fill="white"/>
</clipPath>
</defs>
</svg>
