<svg width="52" height="46" viewBox="0 0 52 46" fill="none" xmlns="http://www.w3.org/2000/svg">
<g clip-path="url(#clip0_160_3756)">
<path d="M49.2939 0.898227C50.1656 2.90598 50.8308 4.99645 51.2791 7.13762C51.7553 9.33552 51.9973 11.5773 52.0011 13.8257C52.0563 18.7241 51.008 23.5727 48.9334 28.0152C47.0347 32.141 44.1169 35.7211 40.4521 38.4215C36.7608 41.1021 32.3836 42.6903 27.8247 43.0031C24.5658 43.3828 21.267 42.7891 18.3483 41.2974C15.8798 40.0891 13.7433 38.3021 12.1225 36.0902C10.2081 37.6299 8.53577 39.4456 7.16085 41.4772C6.55248 42.2996 6.03976 43.188 5.6325 44.1253C5.4924 44.4866 5.28034 44.816 5.00907 45.0936C4.7378 45.3713 4.41292 45.5915 4.05394 45.7411C3.70971 45.9032 3.33493 45.991 2.95419 45.9987C2.57344 46.0065 2.19536 45.934 1.84476 45.7861C1.48953 45.6418 1.16658 45.4288 0.894593 45.1595C0.622603 44.8903 0.406975 44.57 0.260181 44.2172C0.0964935 43.875 0.00739728 43.5023 -0.00125596 43.1234C-0.00990919 42.7445 0.0620751 42.3681 0.209972 42.0188C1.41982 39.3422 3.06762 36.884 5.08623 34.7442C8.20077 31.3566 11.9767 28.6365 16.1833 26.7501C21.9943 24.1544 28.3097 22.868 34.6782 22.9829C34.8693 22.99 35.0599 22.9582 35.2382 22.8895C35.4166 22.8208 35.579 22.7165 35.7155 22.5832C35.8495 22.4474 35.9542 22.2858 36.0233 22.1083C36.0923 21.9308 36.1243 21.7412 36.1171 21.551C36.1243 21.3608 36.0923 21.1711 36.0233 20.9936C35.9542 20.8161 35.8495 20.6545 35.7155 20.5187C35.579 20.3854 35.4166 20.2812 35.2382 20.2124C35.0599 20.1437 34.8693 20.1119 34.6782 20.119C24.5133 20.119 15.9109 22.6328 8.87095 27.6604L8.78057 27.4806C8.72032 26.7624 8.6902 26.2238 8.6902 25.8648C8.66821 22.8294 9.48114 19.8458 11.041 17.2372C12.5699 14.6383 14.7446 12.4743 17.3562 10.9528C19.9755 9.40393 22.9704 8.59677 26.0172 8.61852H33.2342C35.9804 8.64028 38.6798 7.91056 41.0376 6.50908C43.4153 5.10058 45.3883 3.10625 46.7664 0.718363C46.8982 0.49222 47.0893 0.305941 47.3192 0.179405C47.5491 0.0528697 47.8092 -0.0091752 48.0718 -0.000107694C48.3463 -0.00454717 48.6147 0.0809969 48.8355 0.243338C49.0564 0.405679 49.2174 0.635801 49.2939 0.898227Z" fill="white"/>
</g>
<defs>
<clipPath id="clip0_160_3756">
<rect width="52" height="46" fill="white"/>
</clipPath>
</defs>
</svg>
