<svg width="46" height="52" viewBox="0 0 46 52" fill="none" xmlns="http://www.w3.org/2000/svg">
<g clip-path="url(#clip0_160_3768)">
<path d="M41.977 26C43.6807 28.2131 44.8614 30.7831 45.4304 33.5174C45.7948 35.3962 45.4702 37.3433 44.5159 39.0023C43.85 40.1489 42.924 41.1231 41.8127 41.8464C40.7014 42.5698 39.4357 43.022 38.1177 43.1668C36.3359 43.4412 34.5254 43.4754 32.7345 43.2685C31.8099 45.6396 30.3901 47.7862 28.57 49.565C27.0301 51.0975 24.9544 51.9707 22.7822 52C20.6092 51.9704 18.533 51.0963 16.9932 49.5628C15.175 47.7831 13.7572 45.6361 12.8344 43.2651C11.0435 43.472 9.23299 43.4378 7.45122 43.1634C6.13315 43.0186 4.86749 42.5664 3.75617 41.8431C2.64485 41.1197 1.71892 40.1455 1.05296 38.9989C0.162642 37.3177 -0.158261 35.3931 0.138439 33.514C0.706666 30.7813 1.88575 28.2125 3.5874 26C1.88367 23.7869 0.703009 21.2169 0.133918 18.4826C-0.230461 16.6038 0.094201 14.6567 1.04844 12.9977C1.84709 11.5922 3.05049 10.4597 4.50192 9.74774C7.11882 8.60208 10.0141 8.24837 12.8298 8.73035C13.7545 6.35926 15.1743 4.21267 16.9944 2.43383C18.5344 0.901826 20.6101 0.0290042 22.7822 0C24.9552 0.0296156 27.0313 0.903702 28.5711 2.43722C30.3893 4.21693 31.8071 6.36389 32.73 8.73487C35.5458 8.2529 38.441 8.6066 41.0579 9.75226C42.5093 10.4642 43.7128 11.5967 44.5114 13.0023C45.4017 14.6834 45.7226 16.608 45.4259 18.4871C44.8575 21.2195 43.6785 23.7878 41.977 26ZM6.43044 35.75C6.80638 36.1983 7.32539 36.5034 7.90001 36.6137C8.87663 36.8693 9.88991 36.9553 10.8957 36.868C10.6251 35.5115 10.3881 34.1572 10.1846 32.8052C9.44003 32.1955 8.69508 31.5523 7.94974 30.8756C7.36924 31.82 6.89244 32.8244 6.52766 33.8712C6.26423 34.464 6.2296 35.1332 6.43044 35.75ZM10.188 19.1959C10.3915 17.8394 10.6285 16.4851 10.899 15.1331H10.2897C9.4332 15.1132 8.57821 15.216 7.75079 15.4383C7.2153 15.544 6.74185 15.8537 6.43044 16.302C6.23069 16.9021 6.26708 17.5557 6.53218 18.1299C6.89696 19.1768 7.37376 20.1811 7.95427 21.1256C8.69885 20.4481 9.44343 19.8048 10.188 19.1959ZM22.7822 6.5C22.457 6.55187 22.1456 6.66868 21.8665 6.84347C21.5874 7.01826 21.3464 7.24746 21.1577 7.51739C20.4404 8.35471 19.8266 9.2755 19.3298 10.2598C20.4135 10.666 21.5647 11.1061 22.7833 11.5802C24.0019 11.1061 25.1531 10.666 26.2368 10.2598C25.7393 9.27539 25.1248 8.35459 24.4066 7.51739C24.218 7.24746 23.977 7.01826 23.6979 6.84347C23.4188 6.66868 23.1074 6.55187 22.7822 6.5ZM22.7822 45.5C23.1074 45.4481 23.4188 45.3313 23.6979 45.1565C23.977 44.9817 24.218 44.7525 24.4066 44.4826C25.1242 43.6461 25.7383 42.726 26.2357 41.7424C25.1519 41.3362 24.0008 40.8961 22.7822 40.4221C21.5636 40.8961 20.4124 41.3362 19.3287 41.7424C19.8257 42.726 20.4394 43.646 21.1566 44.4826C21.3454 44.7527 21.5866 44.9819 21.8659 45.1567C22.1451 45.3315 22.4568 45.4483 22.7822 45.5ZM29.1804 29.5552C29.3158 27.186 29.2818 24.8102 29.0787 22.4459C27.094 21.011 24.9871 19.7533 22.7822 18.6872C20.5773 19.7529 18.4704 21.0103 16.4857 22.4448C16.2826 24.8091 16.2486 27.1849 16.3839 29.5541C18.4133 30.9752 20.5528 32.2321 22.7822 33.3128C25.0115 32.2324 27.151 30.9759 29.1804 29.5552ZM39.1283 35.75C39.3277 35.1327 39.2914 34.4634 39.0265 33.8712C38.6617 32.8244 38.185 31.82 37.6044 30.8756C36.8599 31.5538 36.1149 32.197 35.3696 32.8052C35.1661 34.1617 34.9291 35.516 34.6585 36.868C35.6643 36.9553 36.6776 36.8693 37.6542 36.6137C38.2325 36.5056 38.7554 36.2003 39.1339 35.75H39.1283ZM37.6101 21.1256C38.1906 20.1811 38.6674 19.1768 39.0322 18.1299C39.2973 17.5557 39.3337 16.9021 39.1339 16.302C38.8225 15.8537 38.3491 15.544 37.8136 15.4383C36.9862 15.216 36.1312 15.1132 35.2746 15.1331H34.6653C34.9359 16.4897 35.1729 17.8439 35.3764 19.1959C36.1209 19.8048 36.8655 20.4481 37.6101 21.1256ZM22.7822 22.75C23.2087 22.7464 23.6315 22.8302 24.0244 22.9962C24.4173 23.1622 24.7721 23.407 25.0668 23.7154C25.3752 24.0101 25.6199 24.3648 25.786 24.7578C25.952 25.1507 26.0358 25.5735 26.0322 26C26.0358 26.4265 25.952 26.8493 25.786 27.2422C25.6199 27.6352 25.3752 27.9899 25.0668 28.2846C24.7721 28.593 24.4173 28.8378 24.0244 29.0038C23.6315 29.1698 23.2087 29.2536 22.7822 29.25C22.3556 29.2536 21.9329 29.1698 21.5399 29.0038C21.147 28.8378 20.7923 28.593 20.4976 28.2846C20.1892 27.9899 19.9444 27.6352 19.7784 27.2422C19.6124 26.8493 19.5286 26.4265 19.5322 26C19.5286 25.5735 19.6124 25.1507 19.7784 24.7578C19.9444 24.3648 20.1892 24.0101 20.4976 23.7154C20.7923 23.407 21.147 23.1622 21.5399 22.9962C21.9329 22.8302 22.3556 22.7464 22.7822 22.75Z" fill="white"/>
</g>
<defs>
<clipPath id="clip0_160_3768">
<rect width="45.5644" height="52" fill="white"/>
</clipPath>
</defs>
</svg>
