<svg width="45" height="52" viewBox="0 0 45 52" fill="none" xmlns="http://www.w3.org/2000/svg">
<g clip-path="url(#clip0_160_3750)">
<path d="M35.2404 13.1018C33.0083 12.8885 30.7567 13.1303 28.6185 13.8128C26.4906 14.3772 24.4364 15.1953 22.4991 16.25C20.5618 15.1953 18.5076 14.3772 16.3797 13.8128C14.2415 13.1303 11.9898 12.8885 9.75776 13.1018C8.45971 13.3406 7.22236 13.8413 6.11931 14.574C5.01625 15.3067 4.07 16.2565 3.33684 17.3669C1.75532 19.744 0.724655 22.4521 0.321805 25.289C-0.146582 28.1844 -0.112572 31.1403 0.422307 34.0238C1.04644 38.386 2.70005 42.5316 5.24302 46.1093C8.11884 50.0365 11.7306 52 16.0782 52C17.313 51.9539 18.5182 51.6047 19.5901 50.9826C20.4649 50.4402 21.4733 50.1593 22.4991 50.1721C23.525 50.1599 24.5335 50.4417 25.408 50.9849C26.48 51.607 27.6852 51.9561 28.92 52.0023C33.2676 52.0023 36.8782 50.0387 39.7518 46.1116C42.2928 42.5333 43.9445 38.3877 44.5669 34.0261C45.1018 31.1425 45.1358 28.1866 44.6674 25.2912C44.2646 22.4544 43.2339 19.7463 41.6524 17.3692C40.9205 16.2593 39.9757 15.3097 38.8742 14.5767C37.7728 13.8436 36.537 13.342 35.2404 13.1018ZM29.7229 8.93724C30.6569 7.86458 31.3121 6.57312 31.6291 5.17967C31.9734 4.0272 32.1424 2.82841 32.1305 1.62446L32.03 0.10063L30.5247 -0.0011089C29.3354 -0.0132157 28.1512 0.157933 27.0127 0.506458C25.6365 0.827851 24.3612 1.49145 23.302 2.43724C21.9223 3.9757 21.1077 5.94797 20.9949 8.02272C20.8606 9.10179 20.8606 10.1936 20.9949 11.2727L22.4991 11.3756C23.6884 11.3877 24.8726 11.2165 26.011 10.868C27.3876 10.5468 28.6634 9.88319 29.7229 8.93724Z" fill="white"/>
</g>
<defs>
<clipPath id="clip0_160_3750">
<rect width="45" height="52" fill="white"/>
</clipPath>
</defs>
</svg>
