<svg width="46" height="52" viewBox="0 0 46 52" fill="none" xmlns="http://www.w3.org/2000/svg">
<g clip-path="url(#clip0_160_3760)">
<path d="M44.3719 40.9296C45.3009 42.3922 45.6628 44.144 45.3893 45.8549C45.137 47.5475 44.2912 49.0953 43.003 50.2218C41.7128 51.3962 40.0221 52.0324 38.2778 52H7.19985C5.46522 52.0345 3.78046 51.4187 2.47689 50.2738C1.17556 49.1574 0.326911 47.604 0.0905458 45.9058C-0.185946 44.1793 0.175715 42.4112 1.10794 40.9319L12.9888 21.8355V6.49997H12.176C11.855 6.50566 11.5362 6.4455 11.2393 6.3232C10.9424 6.20091 10.6737 6.01908 10.4498 5.78893C10.2197 5.56503 10.0379 5.29636 9.91558 4.99947C9.79328 4.70258 9.73312 4.38379 9.73881 4.06276V2.43832C9.73312 2.11728 9.79328 1.79849 9.91558 1.5016C10.0379 1.20472 10.2197 0.936038 10.4498 0.712146C10.6737 0.481996 10.9424 0.300162 11.2393 0.177869C11.5362 0.0555763 11.855 -0.00458331 12.176 0.00110073H33.3016C33.6226 -0.00458331 33.9414 0.0555763 34.2383 0.177869C34.5352 0.300162 34.8039 0.481996 35.0278 0.712146C35.2579 0.936038 35.4397 1.20472 35.562 1.5016C35.6843 1.79849 35.7445 2.11728 35.7388 2.43832V4.06276C35.7445 4.38379 35.6843 4.70258 35.562 4.99947C35.4397 5.29636 35.2579 5.56503 35.0278 5.78893C34.8039 6.01908 34.5352 6.20091 34.2383 6.3232C33.9414 6.4455 33.6226 6.50566 33.3016 6.49997H32.4888V21.8355L44.3719 40.9296ZM14.0039 32.5H31.4725L26.5981 24.5779C26.1976 24.0532 25.9832 23.41 25.9888 22.75V6.49997H19.4888V22.75C19.4944 23.41 19.28 24.0532 18.8795 24.5779L14.0039 32.5Z" fill="white"/>
</g>
<defs>
<clipPath id="clip0_160_3760">
<rect width="45.4774" height="52" fill="white"/>
</clipPath>
</defs>
</svg>
