<svg width="52" height="46" viewBox="0 0 52 46" fill="none" xmlns="http://www.w3.org/2000/svg">
<g clip-path="url(#clip0_160_3754)">
<path d="M47.4367 -4.7985e-05C48.0049 -0.0101824 48.569 0.0962169 49.0945 0.312582C49.6199 0.528947 50.0954 0.850686 50.4917 1.25795C50.899 1.65422 51.2207 2.12974 51.4371 2.65518C51.6534 3.18061 51.7598 3.7448 51.7497 4.31295V33.063C51.7598 33.6311 51.6534 34.1953 51.4371 34.7207C51.2207 35.2462 50.899 35.7217 50.4917 36.118C50.0954 36.5252 49.6199 36.847 49.0945 37.0633C48.569 37.2797 48.0049 37.3861 47.4367 37.376H30.1867L31.6247 41.687H38.0937C38.3777 41.6819 38.6597 41.7351 38.9223 41.8433C39.185 41.9515 39.4226 42.1124 39.6207 42.316C39.8243 42.514 39.9852 42.7517 40.0933 43.0143C40.2015 43.2769 40.2547 43.559 40.2497 43.843C40.2547 44.1269 40.2015 44.409 40.0933 44.6716C39.9852 44.9342 39.8243 45.1719 39.6207 45.37C39.4226 45.5735 39.185 45.7344 38.9223 45.8426C38.6597 45.9508 38.3777 46.004 38.0937 45.999H13.6557C13.3717 46.004 13.0897 45.9508 12.8271 45.8426C12.5644 45.7344 12.3268 45.5735 12.1287 45.37C11.9251 45.1719 11.7643 44.9342 11.6561 44.6716C11.5479 44.409 11.4947 44.1269 11.4997 43.843C11.4947 43.559 11.5479 43.2769 11.6561 43.0143C11.7643 42.7517 11.9251 42.514 12.1287 42.316C12.3268 42.1124 12.5644 41.9515 12.8271 41.8433C13.0897 41.7351 13.3717 41.6819 13.6557 41.687H20.1247L21.5617 37.375H4.31171C3.74356 37.3851 3.17936 37.2787 2.65393 37.0623C2.1285 36.846 1.65298 36.5242 1.25671 36.117C0.849443 35.7207 0.527701 35.2452 0.311336 34.7197C0.0949714 34.1943 -0.011426 33.6301 -0.00129157 33.062V4.31195C-0.011426 3.74381 0.0949714 3.17961 0.311336 2.65418C0.527701 2.12874 0.849443 1.65322 1.25671 1.25695C1.65298 0.849687 2.1285 0.527947 2.65393 0.311582C3.17936 0.0952174 3.74356 -0.0111818 4.31171 -0.00104744L47.4367 -4.7985e-05ZM45.9997 31.625V5.74995H5.74971V31.625H45.9997Z" fill="white"/>
</g>
<defs>
<clipPath id="clip0_160_3754">
<rect width="51.75" height="46" fill="white"/>
</clipPath>
</defs>
</svg>
