<svg width="61" height="48" viewBox="0 0 61 48" fill="none" xmlns="http://www.w3.org/2000/svg">
<g clip-path="url(#clip0_160_3752)">
<path d="M9.15085 5.99991V38.9999H3.05085V3.75017C3.03828 3.25473 3.12903 2.76201 3.3175 2.3024C3.50598 1.84278 3.7882 1.42602 4.14673 1.07782C4.50074 0.725163 4.92444 0.447577 5.39172 0.262189C5.85899 0.0767999 6.35992 -0.0124614 6.86362 -9.00154e-05H54.1381C54.6418 -0.0124614 55.1427 0.0767999 55.61 0.262189C56.0773 0.447577 56.501 0.725163 56.855 1.07782C57.2135 1.42602 57.4957 1.84278 57.6842 2.3024C57.8727 2.76201 57.9634 3.25473 57.9509 3.75017V38.9999H51.8509V5.99991H9.15085ZM59.4753 41.9999C59.6777 41.992 59.8796 42.0253 60.0683 42.0979C60.2569 42.1704 60.4283 42.2806 60.5716 42.4214C60.7149 42.5622 60.827 42.7307 60.9008 42.9162C60.9747 43.1017 61.0088 43.3003 61.0009 43.4994V46.4994C61.0089 46.6986 60.975 46.8972 60.9012 47.0829C60.8274 47.2685 60.7153 47.4371 60.572 47.5781C60.4287 47.719 60.2573 47.8293 60.0685 47.9019C59.8798 47.9745 59.6778 48.0078 59.4753 47.9999H1.52532C1.3234 48.0073 1.12206 47.9741 0.93363 47.9024C0.745198 47.8306 0.573636 47.7217 0.429445 47.5825C0.287886 47.4407 0.177239 47.2719 0.104275 47.0866C0.03131 46.9013 -0.00243827 46.7032 0.00509746 46.5046V43.4994C-0.00302278 43.3001 0.0304398 43.1012 0.103421 42.9151C0.176402 42.729 0.287355 42.5596 0.429445 42.4173C0.573636 42.2781 0.745198 42.1692 0.93363 42.0975C1.12206 42.0257 1.3234 41.9925 1.52532 41.9999H27.4509V35.9999H45.7509V41.9999H59.4753Z" fill="white"/>
</g>
<defs>
<clipPath id="clip0_160_3752">
<rect width="61" height="48" fill="white"/>
</clipPath>
</defs>
</svg>
