<svg width="52" height="52" viewBox="0 0 52 52" fill="none" xmlns="http://www.w3.org/2000/svg">
<g clip-path="url(#clip0_160_3746)">
<path d="M51.962 48.75C51.9663 49.1773 51.8828 49.6009 51.7169 49.9947C51.551 50.3884 51.3061 50.7439 50.9974 51.0391C50.7029 51.3475 50.3484 51.5923 49.9558 51.7583C49.5631 51.9243 49.1407 52.0081 48.7144 52.0045H32.4764C32.05 52.0083 31.6273 51.9246 31.2345 51.7585C30.8417 51.5925 30.487 51.3476 30.1924 51.0391C29.8842 50.7444 29.6396 50.3897 29.4737 49.9967C29.3078 49.6038 29.2241 49.181 29.2277 48.7545V32.5C29.2241 32.0734 29.3078 31.6507 29.4737 31.2577C29.6396 30.8648 29.8842 30.5101 30.1924 30.2154C30.4869 29.907 30.8414 29.6622 31.234 29.4962C31.6266 29.3302 32.0491 29.2464 32.4753 29.25H48.7144C49.1407 29.2464 49.5631 29.3302 49.9558 29.4962C50.3484 29.6622 50.7029 29.907 50.9974 30.2154C51.3055 30.5101 51.5501 30.8648 51.716 31.2577C51.8819 31.6507 51.9656 32.0734 51.962 32.5V48.75ZM12.9908 26C15.2876 25.9809 17.5477 26.5768 19.5369 27.7262C21.5045 28.8488 23.1345 30.48 24.2563 32.4491C25.4048 34.4397 26.0004 36.7015 25.9812 39C26.0004 41.2985 25.4048 43.5602 24.2563 45.5508C23.1345 47.52 21.5045 49.1512 19.5369 50.2738C17.5477 51.4231 15.2876 52.0191 12.9908 52C10.6941 52.0191 8.43395 51.4231 6.44481 50.2738C4.47717 49.1512 2.84717 47.52 1.72535 45.5508C0.57688 43.5602 -0.0186653 41.2985 0.000445894 39C-0.0186653 36.7015 0.57688 34.4397 1.72535 32.4491C2.84717 30.48 4.47717 28.8488 6.44481 27.7262C8.43395 26.5768 10.6941 25.9809 12.9908 26ZM48.6128 22.75H29.3305C28.7443 22.7762 28.1624 22.6381 27.6504 22.351C27.1385 22.064 26.7169 21.6396 26.4331 21.1255C26.1195 20.6436 25.9484 20.0829 25.9394 19.5079C25.9304 18.9329 26.0839 18.367 26.3822 17.8755L36.0279 1.62555C36.3252 1.11293 36.7561 0.690866 37.2747 0.404524C37.7932 0.118182 38.3798 -0.021656 38.9716 -1.81205e-05C39.5632 -0.0215608 40.1495 0.118203 40.6678 0.40433C41.1861 0.690457 41.6169 1.11219 41.9142 1.62442L51.5554 17.8744C51.8537 18.3659 52.0072 18.9318 51.9982 19.5068C51.9892 20.0817 51.8181 20.6425 51.5045 21.1244C51.2214 21.6378 50.8007 22.0619 50.2898 22.349C49.779 22.6362 49.1982 22.7751 48.6128 22.75Z" fill="white"/>
</g>
<defs>
<clipPath id="clip0_160_3746">
<rect width="52" height="52" fill="white"/>
</clipPath>
</defs>
</svg>
