<svg width="40" height="40" viewBox="0 0 40 40" fill="none" xmlns="http://www.w3.org/2000/svg">
<mask id="mask0_160_4860" style="mask-type:alpha" maskUnits="userSpaceOnUse" x="8" y="8" width="24" height="24">
<rect x="8" y="8" width="24" height="24" fill="#D9D9D9"/>
</mask>
<g mask="url(#mask0_160_4860)">
<path d="M13.6154 28C13.1679 28 12.7869 27.8426 12.4721 27.5279C12.1574 27.2132 12 26.8321 12 26.3846V13.6154C12 13.1679 12.1574 12.7868 12.4721 12.4721C12.7869 12.1574 13.1679 12 13.6154 12H26.3846C26.8321 12 27.2132 12.1574 27.5279 12.4721C27.8426 12.7868 28 13.1679 28 13.6154V16.5577H27V13.6154C27 13.4359 26.9423 13.2885 26.8269 13.1731C26.7115 13.0577 26.5641 13 26.3846 13H13.6154C13.4359 13 13.2885 13.0577 13.1731 13.1731C13.0577 13.2885 13 13.4359 13 13.6154V26.3846C13 26.5641 13.0577 26.7115 13.1731 26.8269C13.2885 26.9423 13.4359 27 13.6154 27H26.3846C26.5641 27 26.7115 26.9423 26.8269 26.8269C26.9423 26.7115 27 26.5641 27 26.3846V23.4423H28V26.3846C28 26.8321 27.8426 27.2132 27.5279 27.5279C27.2132 27.8426 26.8321 28 26.3846 28H13.6154ZM21.6154 24C21.1679 24 20.7868 23.8426 20.4721 23.5279C20.1574 23.2132 20 22.8321 20 22.3846V17.6154C20 17.1679 20.1574 16.7868 20.4721 16.4721C20.7868 16.1574 21.1679 16 21.6154 16H27.3846C27.8321 16 28.2132 16.1574 28.5279 16.4721C28.8426 16.7868 29 17.1679 29 17.6154V22.3846C29 22.8321 28.8426 23.2132 28.5279 23.5279C28.2132 23.8426 27.8321 24 27.3846 24H21.6154ZM27.3846 23C27.5641 23 27.7115 22.9423 27.8269 22.8269C27.9423 22.7115 28 22.5641 28 22.3846V17.6154C28 17.4359 27.9423 17.2885 27.8269 17.1731C27.7115 17.0577 27.5641 17 27.3846 17H21.6154C21.4359 17 21.2885 17.0577 21.1731 17.1731C21.0577 17.2885 21 17.4359 21 17.6154V22.3846C21 22.5641 21.0577 22.7115 21.1731 22.8269C21.2885 22.9423 21.4359 23 21.6154 23H27.3846ZM24 21.5C24.4167 21.5 24.7708 21.3542 25.0625 21.0625C25.3542 20.7708 25.5 20.4167 25.5 20C25.5 19.5833 25.3542 19.2292 25.0625 18.9375C24.7708 18.6458 24.4167 18.5 24 18.5C23.5833 18.5 23.2292 18.6458 22.9375 18.9375C22.6458 19.2292 22.5 19.5833 22.5 20C22.5 20.4167 22.6458 20.7708 22.9375 21.0625C23.2292 21.3542 23.5833 21.5 24 21.5Z" fill="white"/>
</g>
</svg>
