<svg width="40" height="40" viewBox="0 0 40 40" fill="none" xmlns="http://www.w3.org/2000/svg">
<mask id="mask0_160_4865" style="mask-type:alpha" maskUnits="userSpaceOnUse" x="8" y="8" width="24" height="24">
<rect x="8" y="8" width="24" height="24" fill="#D9D9D9"/>
</mask>
<g mask="url(#mask0_160_4865)">
<path d="M13.6154 28C13.1679 28 12.7869 27.8426 12.4721 27.5279C12.1574 27.2131 12 26.8321 12 26.3846V13.6154C12 13.1679 12.1574 12.7868 12.4721 12.4721C12.7869 12.1574 13.1679 12 13.6154 12H18.3154C18.2244 11.4897 18.3465 11.0288 18.6817 10.6173C19.017 10.2058 19.4564 10 20 10C20.5564 10 21.0023 10.2058 21.3375 10.6173C21.6728 11.0288 21.7885 11.4897 21.6846 12H26.3846C26.8321 12 27.2132 12.1574 27.5279 12.4721C27.8426 12.7868 28 13.1679 28 13.6154V26.3846C28 26.8321 27.8426 27.2131 27.5279 27.5279C27.2132 27.8426 26.8321 28 26.3846 28H13.6154ZM13.6154 27H26.3846C26.5385 27 26.6795 26.9359 26.8077 26.8077C26.9359 26.6795 27 26.5385 27 26.3846V13.6154C27 13.4615 26.9359 13.3205 26.8077 13.1923C26.6795 13.0641 26.5385 13 26.3846 13H13.6154C13.4615 13 13.3205 13.0641 13.1923 13.1923C13.0641 13.3205 13 13.4615 13 13.6154V26.3846C13 26.5385 13.0641 26.6795 13.1923 26.8077C13.3205 26.9359 13.4615 27 13.6154 27ZM15.5 24.2692H21.5V23.2692H15.5V24.2692ZM15.5 20.5H24.5V19.5H15.5V20.5ZM15.5 16.7308H24.5V15.7308H15.5V16.7308ZM20 12.4423C20.2167 12.4423 20.3958 12.3715 20.5375 12.2298C20.6792 12.0881 20.75 11.909 20.75 11.6923C20.75 11.4756 20.6792 11.2965 20.5375 11.1548C20.3958 11.0131 20.2167 10.9423 20 10.9423C19.7833 10.9423 19.6042 11.0131 19.4625 11.1548C19.3208 11.2965 19.25 11.4756 19.25 11.6923C19.25 11.909 19.3208 12.0881 19.4625 12.2298C19.6042 12.3715 19.7833 12.4423 20 12.4423Z" fill="white"/>
</g>
</svg>
