<svg width="40" height="40" viewBox="0 0 40 40" fill="none" xmlns="http://www.w3.org/2000/svg">
<mask id="mask0_160_4855" style="mask-type:alpha" maskUnits="userSpaceOnUse" x="8" y="8" width="24" height="24">
<rect x="8" y="8" width="24" height="24" fill="#D9D9D9"/>
</mask>
<g mask="url(#mask0_160_4855)">
<path d="M29 14.6154V25.3846C29 25.8449 28.8458 26.2292 28.5375 26.5375C28.2292 26.8458 27.8449 27 27.3846 27H12.6154C12.1551 27 11.7708 26.8458 11.4625 26.5375C11.1542 26.2292 11 25.8449 11 25.3846V14.6154C11 14.1551 11.1542 13.7708 11.4625 13.4625C11.7708 13.1542 12.1551 13 12.6154 13H27.3846C27.8449 13 28.2292 13.1542 28.5375 13.4625C28.8458 13.7708 29 14.1551 29 14.6154ZM12 16.8077H28V14.6154C28 14.4615 27.9359 14.3205 27.8077 14.1923C27.6795 14.0641 27.5385 14 27.3846 14H12.6154C12.4615 14 12.3205 14.0641 12.1923 14.1923C12.0641 14.3205 12 14.4615 12 14.6154V16.8077ZM12 19.1923V25.3846C12 25.5385 12.0641 25.6795 12.1923 25.8077C12.3205 25.9359 12.4615 26 12.6154 26H27.3846C27.5385 26 27.6795 25.9359 27.8077 25.8077C27.9359 25.6795 28 25.5385 28 25.3846V19.1923H12Z" fill="white"/>
</g>
</svg>
