<svg width="40" height="40" fill="none" xmlns="http://www.w3.org/2000/svg"><mask id="a" style="mask-type:alpha" maskUnits="userSpaceOnUse" x="8" y="8" width="24" height="24"><path fill="#D9D9D9" d="M8 8h24v24H8z"/></mask><g mask="url(#a)"><path d="M13.615 28c-.447 0-.828-.157-1.143-.472A1.557 1.557 0 0112 26.385v-12.77c0-.447.157-.828.472-1.143A1.557 1.557 0 0113.615 12h12.77c.447 0 .828.157 1.143.472.315.315.472.696.472 1.143v2.943h-1v-2.943a.599.599 0 00-.173-.442.599.599 0 00-.442-.173h-12.77a.599.599 0 00-.442.173.599.599 0 00-.173.442v12.77a.6.6 0 00.173.442.599.599 0 00.442.173h12.77a.6.6 0 00.442-.173.599.599 0 00.173-.442v-2.943h1v2.943c0 .447-.157.828-.472 1.143a1.557 1.557 0 01-1.143.472h-12.77zm8-4c-.447 0-.828-.157-1.143-.472A1.557 1.557 0 0120 22.385v-4.77c0-.447.157-.828.472-1.143A1.557 1.557 0 0121.615 16h5.77c.447 0 .828.157 1.143.472.315.315.472.696.472 1.143v4.77c0 .447-.157.828-.472 1.143a1.557 1.557 0 01-1.143.472h-5.77zm5.77-1a.6.6 0 00.442-.173.599.599 0 00.173-.442v-4.77a.599.599 0 00-.173-.442.599.599 0 00-.442-.173h-5.77a.599.599 0 00-.442.173.599.599 0 00-.173.442v4.77a.6.6 0 00.173.442.599.599 0 00.442.173h5.77zM24 21.5c.417 0 .77-.146 1.063-.438.291-.291.437-.645.437-1.062 0-.417-.146-.77-.438-1.063A1.446 1.446 0 0024 18.5c-.417 0-.77.146-1.063.438A1.446 1.446 0 0022.5 20c0 .417.146.77.438 1.063.291.291.645.437 1.062.437z" fill="#fff"/></g></svg>