<svg width="40" height="40" fill="none" xmlns="http://www.w3.org/2000/svg"><mask id="a" style="mask-type:alpha" maskUnits="userSpaceOnUse" x="8" y="8" width="24" height="24"><path fill="#D9D9D9" d="M8 8h24v24H8z"/></mask><g mask="url(#a)"><path d="M13.615 28c-.447 0-.828-.157-1.143-.472A1.557 1.557 0 0112 26.385v-12.77c0-.447.157-.828.472-1.143A1.557 1.557 0 0113.615 12h4.7c-.09-.51.031-.971.367-1.383.335-.411.774-.617 1.318-.617.556 0 1.002.206 1.337.617.336.412.451.873.348 1.383h4.7c.447 0 .828.157 1.143.472.315.315.472.696.472 1.143v12.77c0 .447-.157.828-.472 1.143a1.557 1.557 0 01-1.143.472h-12.77zm0-1h12.77a.588.588 0 00.423-.192.588.588 0 00.192-.423v-12.77a.588.588 0 00-.192-.423.588.588 0 00-.423-.192h-12.77a.588.588 0 00-.423.192.588.588 0 00-.192.423v12.77c0 .153.064.294.192.423a.59.59 0 00.423.192zm1.885-2.73h6v-1h-6v1zm0-3.77h9v-1h-9v1zm0-3.77h9v-1h-9v1zm4.5-4.288a.728.728 0 00.75-.75.728.728 0 00-.75-.75.728.728 0 00-.75.75.728.728 0 00.75.75z" fill="#fff"/></g></svg>