<svg width="40" height="40" fill="none" xmlns="http://www.w3.org/2000/svg"><mask id="a" style="mask-type:alpha" maskUnits="userSpaceOnUse" x="8" y="8" width="24" height="24"><path fill="#D9D9D9" d="M8 8h24v24H8z"/></mask><g mask="url(#a)"><path d="M29 14.615v10.77c0 .46-.154.844-.462 1.152a1.565 1.565 0 01-1.153.463h-14.77c-.46 0-.844-.154-1.152-.462A1.565 1.565 0 0111 25.385v-10.77c0-.46.154-.844.463-1.152A1.565 1.565 0 0112.614 13h14.77c.46 0 .844.154 1.152.463.309.308.463.692.463 1.152zm-17 2.193h16v-2.193a.588.588 0 00-.192-.423.588.588 0 00-.423-.192h-14.77a.588.588 0 00-.423.192.588.588 0 00-.192.423v2.193zm0 2.384v6.193c0 .153.064.294.192.423a.59.59 0 00.423.192h14.77a.588.588 0 00.423-.192.588.588 0 00.192-.423v-6.193H12z" fill="#fff"/></g></svg>